<?xml version="1.0" encoding="utf-8"?>
<!-- Generator: Adobe Illustrator 19.1.0, SVG Export Plug-In . SVG Version: 6.00 Build 0)  -->
<svg version="1.1" id="Layer_1" xmlns="http://www.w3.org/2000/svg" xmlns:xlink="http://www.w3.org/1999/xlink" x="0px" y="0px"
	 width="340px" height="316px" viewBox="0 0 340 316" enable-background="new 0 0 340 316" xml:space="preserve">
<g>
	<path fill="#FFFFFF" d="M6.195,267.674c0-0.54,0.432-1.026,1.026-1.026h12.69c6.642,0,12.096,5.4,12.096,11.935
		c0,6.695-5.454,12.149-12.042,12.149h-6.75v12.69c0,0.54-0.486,1.026-1.026,1.026H7.221c-0.594,0-1.026-0.486-1.026-1.026V267.674z
		 M19.479,284.144c3.024,0,5.562-2.43,5.562-5.616c0-2.97-2.538-5.238-5.562-5.238h-6.264v10.854H19.479z"/>
	<path fill="#FFFFFF" d="M38.163,267.674c0-0.54,0.486-1.026,1.026-1.026h5.022c0.594,0,1.026,0.486,1.026,1.026v14.31h17.604
		v-14.31c0-0.54,0.432-1.026,1.026-1.026h4.968c0.54,0,1.026,0.486,1.026,1.026v35.748c0,0.54-0.486,1.026-1.026,1.026h-4.968
		c-0.594,0-1.026-0.486-1.026-1.026v-14.904H45.237v14.904c0,0.54-0.432,1.026-1.026,1.026h-5.022c-0.54,0-1.026-0.486-1.026-1.026
		V267.674z"/>
	<path fill="#FFFFFF" d="M96.375,266.107c10.8,0,19.44,8.694,19.44,19.494c0,10.801-8.64,19.387-19.44,19.387
		c-10.8,0-19.386-8.586-19.386-19.387C76.988,274.802,85.575,266.107,96.375,266.107z M96.375,297.968
		c6.804,0,12.42-5.562,12.42-12.366c0-6.804-5.616-12.474-12.42-12.474c-6.804,0-12.366,5.67-12.366,12.474
		C84.009,292.406,89.571,297.968,96.375,297.968z"/>
	<path fill="#FFFFFF" d="M127.586,273.128h-8.262c-0.594,0-1.026-0.486-1.026-1.026v-4.428c0-0.54,0.432-1.026,1.026-1.026h23.598
		c0.594,0,1.026,0.486,1.026,1.026v4.428c0,0.54-0.432,1.026-1.026,1.026h-8.262v30.294c0,0.54-0.486,1.026-1.026,1.026h-5.022
		c-0.54,0-1.026-0.486-1.026-1.026V273.128z"/>
	<path fill="#FFFFFF" d="M165.872,266.107c10.801,0,19.44,8.694,19.44,19.494c0,10.801-8.64,19.387-19.44,19.387
		c-10.8,0-19.386-8.586-19.386-19.387C146.486,274.802,155.072,266.107,165.872,266.107z M165.872,297.968
		c6.805,0,12.421-5.562,12.421-12.366c0-6.804-5.616-12.474-12.421-12.474c-6.804,0-12.365,5.67-12.365,12.474
		C153.507,292.406,159.068,297.968,165.872,297.968z"/>
	<path fill="#FFFFFF" d="M204.319,267.674c0-0.54,0.486-1.026,1.026-1.026h5.021c0.595,0,1.026,0.486,1.026,1.026v14.31h17.604
		v-14.31c0-0.54,0.432-1.026,1.025-1.026h4.969c0.54,0,1.025,0.486,1.025,1.026v35.748c0,0.54-0.485,1.026-1.025,1.026h-4.969
		c-0.594,0-1.025-0.486-1.025-1.026v-14.904h-17.604v14.904c0,0.54-0.432,1.026-1.026,1.026h-5.021c-0.54,0-1.026-0.486-1.026-1.026
		V267.674z"/>
	<path fill="#FFFFFF" d="M245.845,267.674c0-0.54,0.432-1.026,1.026-1.026h21.978c0.595,0,1.026,0.486,1.026,1.026v4.428
		c0,0.54-0.432,1.026-1.026,1.026h-15.983v8.855h13.338c0.54,0,1.026,0.486,1.026,1.026v4.482c0,0.594-0.486,1.025-1.026,1.025
		h-13.338v9.45h15.983c0.595,0,1.026,0.486,1.026,1.026v4.428c0,0.54-0.432,1.026-1.026,1.026h-21.978
		c-0.595,0-1.026-0.486-1.026-1.026V267.674z"/>
	<path fill="#FFFFFF" d="M277.597,267.674c0-0.54,0.432-1.026,1.026-1.026h15.444c6.479,0,11.771,5.184,11.771,11.61
		c0,4.968-3.294,9.018-7.992,10.908l7.398,13.716c0.378,0.702,0,1.566-0.918,1.566h-5.67c-0.486,0-0.756-0.271-0.864-0.486
		l-7.182-14.311h-5.994v13.771c0,0.54-0.486,1.026-1.026,1.026h-4.968c-0.595,0-1.026-0.486-1.026-1.026V267.674z M293.473,283.874
		c2.862,0,5.347-2.484,5.347-5.509c0-2.861-2.484-5.237-5.347-5.237h-8.802v10.746H293.473z"/>
	<path fill="#FFFFFF" d="M313.56,267.674c0-0.54,0.432-1.026,1.026-1.026h21.978c0.595,0,1.026,0.486,1.026,1.026v4.428
		c0,0.54-0.432,1.026-1.026,1.026H320.58v8.855h13.338c0.54,0,1.026,0.486,1.026,1.026v4.482c0,0.594-0.486,1.025-1.026,1.025
		H320.58v9.45h15.983c0.595,0,1.026,0.486,1.026,1.026v4.428c0,0.54-0.432,1.026-1.026,1.026h-21.978
		c-0.595,0-1.026-0.486-1.026-1.026V267.674z"/>
</g>
<g>
	<g>
		<path fill-rule="evenodd" clip-rule="evenodd" fill="#FFFFFF" d="M76.991,73.021c17.262,0,31.257-13.143,31.257-31.127
			c0-17.994-13.995-32.584-31.257-32.584c-17.264,0-31.259,14.269-31.259,31.86C45.733,58.751,59.728,73.021,76.991,73.021z
			 M327.338,200.312c0-16.472-52.341-132.531-67.878-141.739c-7.488-4.445-12.28-5.602-21.297,5.881
			c-22.165,28.211-71.006,100.425-71.006,100.425c-11.412,12.09-21.073,0-21.073,0l-28.036-33.203
			c-12.418-13.256-29.586-18.46-42.71,0l-60.998,68.636v15.913h313L327.338,200.312z"/>
	</g>
</g>
</svg>
